<svg xmlns="http://www.w3.org/2000/svg" width="800" height="210" viewBox="0 30 800 210" role="img" aria-labelledby="title desc">
  <title id="title">Token usage</title>
  <desc id="desc">Daily token usage for the most recent 30 active days and the five most-used models of all time, with 2,407,350,611 tokens used as of August 03, 2026.</desc>
  <style>
    text { font-family: "Ubuntu", "Helvetica", "Arial", sans-serif; }
    .total { fill: #00000f; font-size: 13px; font-weight: 500; }
    .section { fill: gray; font-size: 11px; font-weight: 400; }
    .daily-bar { fill: #47a042; fill-opacity: 0.62; }
    .daily-bar.peak { fill: #1d6a23; fill-opacity: 0.9; }
    .peak-value { fill: #1d6a23; font-size: 10px; font-weight: 500; font-variant-numeric: tabular-nums; }
    .model-name { fill: #00000f; font-size: 10.5px; font-weight: 500; }
    .model-value { fill: gray; font-size: 10px; font-variant-numeric: tabular-nums; }
    .model-track { fill: #efefef; }
    .model-bar { fill: #47a042; }
  </style>
  <rect width="800" height="240" fill="#ffffff"/>
  <text x="400" y="46" text-anchor="middle" class="total">All-time token usage: 2,407,350,611 as of August 03, 2026</text>
  <rect x="30.8" y="184.2" width="9.8" height="19.8" rx="4.9" class="daily-bar"><title>2026-07-05: 18,671,338 tokens</title></rect>
  <rect x="46.1" y="155.1" width="9.8" height="48.9" rx="4.9" class="daily-bar"><title>2026-07-06: 46,173,496 tokens</title></rect>
  <rect x="61.4" y="155.1" width="9.8" height="48.9" rx="4.9" class="daily-bar"><title>2026-07-07: 46,216,778 tokens</title></rect>
  <rect x="76.8" y="171.0" width="9.8" height="33.0" rx="4.9" class="daily-bar"><title>2026-07-08: 31,211,369 tokens</title></rect>
  <rect x="92.1" y="195.7" width="9.8" height="8.3" rx="4.9" class="daily-bar"><title>2026-07-09: 7,882,153 tokens</title></rect>
  <rect x="107.4" y="163.7" width="9.8" height="40.3" rx="4.9" class="daily-bar"><title>2026-07-10: 38,065,909 tokens</title></rect>
  <rect x="122.8" y="183.5" width="9.8" height="20.5" rx="4.9" class="daily-bar"><title>2026-07-11: 19,341,705 tokens</title></rect>
  <rect x="138.1" y="99.7" width="9.8" height="104.3" rx="4.9" class="daily-bar"><title>2026-07-12: 98,575,804 tokens</title></rect>
  <rect x="153.4" y="188.0" width="9.8" height="16.0" rx="4.9" class="daily-bar"><title>2026-07-13: 15,143,340 tokens</title></rect>
  <rect x="168.8" y="177.0" width="9.8" height="27.0" rx="4.9" class="daily-bar"><title>2026-07-14: 25,535,418 tokens</title></rect>
  <rect x="184.1" y="92.7" width="9.8" height="111.3" rx="4.9" class="daily-bar"><title>2026-07-15: 105,175,628 tokens</title></rect>
  <rect x="199.4" y="175.9" width="9.8" height="28.1" rx="4.9" class="daily-bar"><title>2026-07-16: 26,545,867 tokens</title></rect>
  <rect x="214.8" y="116.0" width="9.8" height="88.0" rx="4.9" class="daily-bar"><title>2026-07-17: 83,151,900 tokens</title></rect>
  <rect x="230.1" y="142.9" width="9.8" height="61.1" rx="4.9" class="daily-bar"><title>2026-07-18: 57,697,942 tokens</title></rect>
  <rect x="245.4" y="82.0" width="9.8" height="122.0" rx="4.9" class="daily-bar peak"><title>2026-07-19: 115,300,861 tokens</title></rect>
  <rect x="260.8" y="174.1" width="9.8" height="29.9" rx="4.9" class="daily-bar"><title>2026-07-20: 28,234,388 tokens</title></rect>
  <rect x="276.1" y="172.6" width="9.8" height="31.4" rx="4.9" class="daily-bar"><title>2026-07-21: 29,639,725 tokens</title></rect>
  <rect x="291.4" y="139.3" width="9.8" height="64.7" rx="4.9" class="daily-bar"><title>2026-07-22: 61,145,167 tokens</title></rect>
  <rect x="306.8" y="183.2" width="9.8" height="20.8" rx="4.9" class="daily-bar"><title>2026-07-23: 19,699,290 tokens</title></rect>
  <rect x="322.1" y="191.8" width="9.8" height="12.2" rx="4.9" class="daily-bar"><title>2026-07-24: 11,554,968 tokens</title></rect>
  <rect x="337.4" y="142.1" width="9.8" height="61.9" rx="4.9" class="daily-bar"><title>2026-07-25: 58,515,085 tokens</title></rect>
  <rect x="352.8" y="118.1" width="9.8" height="85.9" rx="4.9" class="daily-bar"><title>2026-07-26: 81,152,730 tokens</title></rect>
  <rect x="368.1" y="151.0" width="9.8" height="53.0" rx="4.9" class="daily-bar"><title>2026-07-27: 50,047,114 tokens</title></rect>
  <rect x="383.4" y="202.0" width="9.8" height="2.0" rx="4.9" class="daily-bar"><title>2026-07-28: 640,101 tokens</title></rect>
  <rect x="398.8" y="197.8" width="9.8" height="6.2" rx="4.9" class="daily-bar"><title>2026-07-29: 5,875,527 tokens</title></rect>
  <rect x="414.1" y="200.3" width="9.8" height="3.7" rx="4.9" class="daily-bar"><title>2026-07-30: 3,488,696 tokens</title></rect>
  <rect x="429.4" y="197.2" width="9.8" height="6.8" rx="4.9" class="daily-bar"><title>2026-07-31: 6,418,977 tokens</title></rect>
  <rect x="444.8" y="110.9" width="9.8" height="93.1" rx="4.9" class="daily-bar"><title>2026-08-01: 87,952,556 tokens</title></rect>
  <rect x="460.1" y="125.2" width="9.8" height="78.8" rx="4.9" class="daily-bar"><title>2026-08-02: 74,438,055 tokens</title></rect>
  <rect x="475.4" y="194.8" width="9.8" height="9.2" rx="4.9" class="daily-bar"><title>2026-08-03: 8,666,809 tokens</title></rect>
  <text x="250.3" y="75" text-anchor="middle" class="peak-value">115,300,861</text>
  <text x="530" y="75" class="model-name">gpt-5.6-sol</text>
  <text x="772" y="75" text-anchor="end" class="model-value">973.6M</text>
  <rect x="530" y="81" width="242" height="7" rx="3.5" class="model-track"/>
  <rect x="530" y="81" width="242.0" height="7" rx="3.5" class="model-bar"><title>gpt-5.6-sol: 973,585,662 tokens</title></rect>
  <text x="530" y="104" class="model-name">gpt-5.5</text>
  <text x="772" y="104" text-anchor="end" class="model-value">756.9M</text>
  <rect x="530" y="110" width="242" height="7" rx="3.5" class="model-track"/>
  <rect x="530" y="110" width="188.2" height="7" rx="3.5" class="model-bar"><title>gpt-5.5: 756,948,789 tokens</title></rect>
  <text x="530" y="133" class="model-name">gpt-5.4</text>
  <text x="772" y="133" text-anchor="end" class="model-value">282.4M</text>
  <rect x="530" y="139" width="242" height="7" rx="3.5" class="model-track"/>
  <rect x="530" y="139" width="70.2" height="7" rx="3.5" class="model-bar"><title>gpt-5.4: 282,407,156 tokens</title></rect>
  <text x="530" y="162" class="model-name">codex-auto-review</text>
  <text x="772" y="162" text-anchor="end" class="model-value">102.1M</text>
  <rect x="530" y="168" width="242" height="7" rx="3.5" class="model-track"/>
  <rect x="530" y="168" width="25.4" height="7" rx="3.5" class="model-bar"><title>codex-auto-review: 102,050,624 tokens</title></rect>
  <text x="530" y="191" class="model-name">mimo-v2.5-pro</text>
  <text x="772" y="191" text-anchor="end" class="model-value">85.3M</text>
  <rect x="530" y="197" width="242" height="7" rx="3.5" class="model-track"/>
  <rect x="530" y="197" width="21.2" height="7" rx="3.5" class="model-bar"><title>mimo-v2.5-pro: 85,343,783 tokens</title></rect>
  <text x="258" y="226" text-anchor="middle" class="section">Daily usage · last 30 active days</text>
  <text x="651" y="226" text-anchor="middle" class="section">Top models · all time</text>
</svg>
